<svg aria-hidden="true" style="position: absolute; width: 0; height: 0; overflow: hidden;" version="1.1" xmlns="http://www.w3.org/2000/svg" xmlns:xlink="http://www.w3.org/1999/xlink">
<defs>
<symbol id="icon-add-button" viewBox="0 0 32 32">
<path d="M28.235 16c0 6.757-5.478 12.235-12.235 12.235s-12.235-5.478-12.235-12.235c0-6.757 5.478-12.235 12.235-12.235s12.235 5.478 12.235 12.235z"></path>
<path fill="#fff" d="M12.781 15.642h2.861v-2.861c0-0.197 0.16-0.358 0.358-0.358s0.358 0.16 0.358 0.358v2.861h2.861c0.197 0 0.358 0.16 0.358 0.358s-0.16 0.358-0.358 0.358h-2.861v2.861c0 0.197-0.16 0.358-0.358 0.358s-0.358-0.16-0.358-0.358v-2.861h-2.861c-0.197 0-0.358-0.16-0.358-0.358s0.16-0.358 0.358-0.358z"></path>
</symbol>
<symbol id="icon-award" viewBox="0 0 37 32">
<path fill="#eaeaea" style="fill: var(--color3, #eaeaea)" d="M31.283 14.903h4.947c-0.054-0.249-0.245-0.443-0.49-0.506 0.015-0.054 0.019-0.113 0.019-0.171 0-0.385-0.311-0.7-0.7-0.7-0.109 0-0.214 0.027-0.307 0.070-0.148-0.327-0.478-0.556-0.86-0.556-0.408 0-0.754 0.257-0.886 0.618-0.117-0.078-0.253-0.121-0.405-0.121-0.404 0-0.735 0.331-0.735 0.735 0 0.035 0.004 0.070 0.008 0.105-0.292 0.027-0.529 0.241-0.591 0.525z"></path>
<path fill="#eaeaea" style="fill: var(--color3, #eaeaea)" d="M2.291 16.906h5.227c-0.058-0.261-0.261-0.471-0.517-0.533 0.016-0.058 0.023-0.117 0.023-0.183 0-0.408-0.331-0.739-0.739-0.739-0.117 0-0.226 0.027-0.323 0.074-0.156-0.346-0.506-0.587-0.91-0.587-0.432 0-0.797 0.272-0.937 0.653-0.121-0.082-0.268-0.128-0.428-0.128-0.428 0-0.778 0.346-0.778 0.778 0 0.039 0.004 0.074 0.008 0.109-0.307 0.031-0.56 0.257-0.626 0.556z"></path>
<path fill="#eaeaea" style="fill: var(--color3, #eaeaea)" d="M30.645 2.886h6.226c-0.070-0.311-0.311-0.56-0.618-0.634 0.015-0.070 0.027-0.14 0.027-0.214 0-0.486-0.393-0.879-0.879-0.879-0.14 0-0.268 0.031-0.385 0.089-0.187-0.412-0.603-0.7-1.081-0.7-0.513 0-0.949 0.323-1.116 0.778-0.144-0.097-0.319-0.152-0.506-0.152-0.509 0-0.926 0.416-0.926 0.926 0 0.043 0.004 0.089 0.008 0.132-0.373 0.027-0.673 0.299-0.75 0.653z"></path>
<path fill="#eaeaea" style="fill: var(--color3, #eaeaea)" d="M0 6.012h5.67c-0.062-0.284-0.28-0.509-0.564-0.579 0.016-0.062 0.023-0.128 0.023-0.194 0-0.443-0.358-0.801-0.801-0.801-0.124 0-0.245 0.027-0.35 0.082-0.171-0.373-0.548-0.634-0.984-0.634-0.467 0-0.863 0.296-1.015 0.708-0.132-0.086-0.292-0.136-0.463-0.136-0.467 0-0.844 0.377-0.844 0.844 0 0.039 0.004 0.082 0.008 0.121-0.334 0.023-0.611 0.268-0.681 0.591z"></path>
<path fill="#eaeaea" style="fill: var(--color3, #eaeaea)" d="M0.552 30.49h4.352c-0.047-0.218-0.218-0.389-0.432-0.443 0.012-0.047 0.019-0.097 0.019-0.151 0-0.339-0.276-0.615-0.614-0.615-0.097 0-0.187 0.023-0.268 0.062-0.132-0.288-0.42-0.486-0.758-0.486-0.358 0-0.661 0.226-0.778 0.545-0.101-0.066-0.222-0.105-0.354-0.105-0.358 0-0.646 0.288-0.646 0.645 0 0.031 0.004 0.062 0.008 0.093-0.261 0.019-0.474 0.21-0.529 0.455z"></path>
<path fill="#eaeaea" style="fill: var(--color3, #eaeaea)" d="M12.289 2.073h5.519c-0.062-0.276-0.272-0.494-0.548-0.564 0.016-0.062 0.023-0.124 0.023-0.191 0-0.432-0.35-0.778-0.778-0.778-0.121 0-0.237 0.027-0.342 0.078-0.167-0.366-0.533-0.618-0.961-0.618-0.455 0-0.84 0.288-0.988 0.688-0.128-0.086-0.284-0.136-0.451-0.136-0.451 0-0.821 0.366-0.821 0.821 0 0.039 0.004 0.078 0.008 0.117-0.327 0.027-0.591 0.268-0.661 0.583z"></path>
<path fill="#eaeaea" style="fill: var(--color3, #eaeaea)" d="M32.819 29.195h4.352c-0.047-0.218-0.218-0.389-0.431-0.443 0.012-0.047 0.019-0.097 0.019-0.152 0-0.338-0.276-0.614-0.614-0.614-0.097 0-0.187 0.023-0.268 0.062-0.132-0.288-0.42-0.486-0.758-0.486-0.358 0-0.661 0.226-0.778 0.545-0.101-0.066-0.222-0.105-0.354-0.105-0.358 0-0.646 0.288-0.646 0.646 0 0.031 0.004 0.062 0.008 0.093-0.265 0.016-0.475 0.206-0.529 0.455z"></path>
<path fill="#d67412" style="fill: var(--color4, #d67412)" d="M19.083 30.525c-0.331 0.214-0.801 0.214-1.132 0l-8.672-5.608c-0.653-0.42-0.276-1.26 0.564-1.26h17.345c0.84 0 1.217 0.836 0.564 1.26l-8.669 5.608z"></path>
<path fill="#fc842c" style="fill: var(--color5, #fc842c)" d="M16.054 30.373c-0.062 0.074-0.159 0.074-0.222 0l-1.913-2.302-1.758-2.108c-0.097-0.121-0.031-0.323 0.109-0.323h7.358c0.14 0 0.21 0.206 0.109 0.323l-1.758 2.108-1.925 2.302z"></path>
<path fill="#fc842c" style="fill: var(--color5, #fc842c)" d="M20.818 30.521c-0.066 0.082-0.175 0.082-0.241 0l-2.116-2.535-1.937-2.326c-0.109-0.132-0.031-0.358 0.121-0.358h8.105c0.156 0 0.229 0.226 0.121 0.358l-1.937 2.326-2.116 2.535z"></path>
<path fill="#fc842c" style="fill: var(--color5, #fc842c)" d="M18.481 31.867c-0.054 0.066-0.14 0.066-0.194 0l-3.259-3.905c-0.089-0.105-0.027-0.288 0.097-0.288h6.518c0.124 0 0.187 0.183 0.097 0.288l-1.559 1.867-1.7 2.038z"></path>
<path fill="#f99943" style="fill: var(--color6, #f99943)" d="M22.233 26.099h-0.929c-0.109 0-0.198-0.101-0.198-0.226s0.089-0.226 0.198-0.226h0.929c0.109 0 0.198 0.101 0.198 0.226s-0.089 0.226-0.198 0.226z"></path>
<path fill="#f99943" style="fill: var(--color6, #f99943)" d="M22.852 26.099h-0.132c-0.109 0-0.198-0.101-0.198-0.226s0.089-0.226 0.198-0.226h0.132c0.109 0 0.198 0.101 0.198 0.226s-0.089 0.226-0.198 0.226z"></path>
<path fill="#f99943" style="fill: var(--color6, #f99943)" d="M18.317 26.811h-1.097c-0.128 0-0.233-0.117-0.233-0.265s0.105-0.265 0.233-0.265h1.097c0.128 0 0.233 0.117 0.233 0.265s-0.105 0.265-0.233 0.265z"></path>
<path fill="#f99943" style="fill: var(--color6, #f99943)" d="M19.048 26.811h-0.156c-0.128 0-0.233-0.117-0.233-0.265s0.105-0.265 0.233-0.265h0.156c0.128 0 0.233 0.117 0.233 0.265s-0.105 0.265-0.233 0.265z"></path>
<path fill="#f99943" style="fill: var(--color6, #f99943)" d="M18.461 30.35h-0.634c-0.074 0-0.136-0.070-0.136-0.152s0.062-0.151 0.136-0.151h0.634c0.074 0 0.136 0.070 0.136 0.151s-0.058 0.152-0.136 0.152z"></path>
<path fill="#f99943" style="fill: var(--color6, #f99943)" d="M18.885 30.35h-0.089c-0.074 0-0.136-0.070-0.136-0.152s0.062-0.151 0.136-0.151h0.089c0.074 0 0.136 0.070 0.136 0.151s-0.058 0.152-0.136 0.152z"></path>
<path fill="#f99943" style="fill: var(--color6, #f99943)" d="M15.155 26.586c0 0.187-0.132 0.334-0.299 0.334h-0.902c-0.163 0-0.299-0.152-0.299-0.334 0-0.187 0.132-0.334 0.299-0.334h0.902c0.167 0 0.299 0.148 0.299 0.334z"></path>
<path fill="#f99943" style="fill: var(--color6, #f99943)" d="M15.828 27.068c0 0.187-0.132 0.334-0.299 0.334h-0.902c-0.163 0-0.299-0.151-0.299-0.334 0-0.187 0.132-0.334 0.299-0.334h0.902c0.167 0 0.299 0.148 0.299 0.334z"></path>
<path fill="#f99943" style="fill: var(--color6, #f99943)" d="M21.028 27.336c0-0.144-0.105-0.265-0.233-0.265h-0.712c-0.128 0-0.233 0.117-0.233 0.265 0 0.144 0.105 0.265 0.233 0.265h0.712c0.128 0 0.233-0.117 0.233-0.265z"></path>
<path fill="#f99943" style="fill: var(--color6, #f99943)" d="M21.557 26.959c0-0.144-0.105-0.265-0.233-0.265h-0.708c-0.128 0-0.233 0.117-0.233 0.265 0 0.144 0.105 0.265 0.233 0.265h0.708c0.128-0.004 0.233-0.121 0.233-0.265z"></path>
<path fill="#f99943" style="fill: var(--color6, #f99943)" d="M21.269 28.246c-0.156 0-0.284 0.144-0.284 0.319 0 0.051 0.012 0.097 0.031 0.14h-0.187c-0.156 0-0.284 0.144-0.284 0.319 0 0.179 0.128 0.319 0.284 0.319h0.961l0.922-1.105h-1.443v0.008z"></path>
<path fill="#f99943" style="fill: var(--color6, #f99943)" d="M15.758 28.476h-0.187c0.019-0.043 0.031-0.090 0.031-0.14 0-0.179-0.128-0.319-0.284-0.319h-1.447l0.047 0.059 0.871 1.046h0.968c0.156 0 0.284-0.144 0.284-0.319 0-0.183-0.128-0.327-0.284-0.327z"></path>
<path fill="#f99943" style="fill: var(--color6, #f99943)" d="M18.733 28.075c0 0.167-0.121 0.3-0.268 0.3h-1.244c-0.148 0-0.268-0.136-0.268-0.3 0-0.167 0.121-0.299 0.268-0.299h1.244c0.152 0 0.268 0.132 0.268 0.299z"></path>
<path fill="#f99943" style="fill: var(--color6, #f99943)" d="M18.243 28.549c0-0.097 0.070-0.175 0.156-0.175h-0.591c0.086 0 0.156 0.078 0.156 0.175s-0.070 0.175-0.156 0.175h0.591c-0.089 0-0.156-0.078-0.156-0.175z"></path>
<path fill="#f99943" style="fill: var(--color6, #f99943)" d="M19.305 28.989c0 0.148-0.105 0.265-0.233 0.265h-1.474c-0.128 0-0.233-0.117-0.233-0.265s0.105-0.265 0.233-0.265h1.474c0.128 0 0.233 0.121 0.233 0.265z"></path>
<path fill="#bc5800" style="fill: var(--color7, #bc5800)" d="M29.37 21.779c-0.035-0.062-0.093-0.101-0.159-0.101h-21.386c-0.066 0-0.124 0.039-0.159 0.101s-0.035 0.14-0.004 0.206l1.396 2.932c0.031 0.070 0.097 0.109 0.163 0.109h18.597c0.070 0 0.132-0.043 0.163-0.109l1.396-2.932c0.027-0.066 0.023-0.144-0.008-0.206z"></path>
<path fill="#aa5000" style="fill: var(--color8, #aa5000)" d="M12.698 24.439h-1.805c-0.214 0-0.385-0.194-0.385-0.436s0.171-0.436 0.385-0.436h1.805c0.214 0 0.385 0.194 0.385 0.436s-0.171 0.436-0.385 0.436z"></path>
<path fill="#aa5000" style="fill: var(--color8, #aa5000)" d="M13.899 24.439h-0.257c-0.214 0-0.385-0.194-0.385-0.436s0.171-0.436 0.385-0.436h0.257c0.214 0 0.385 0.194 0.385 0.436s-0.171 0.436-0.385 0.436z"></path>
<path fill="#aa5000" style="fill: var(--color8, #aa5000)" d="M24.096 23.606h1.649c0.194 0 0.354 0.179 0.354 0.397s-0.159 0.397-0.354 0.397h-1.649c-0.194 0-0.354-0.179-0.354-0.397s0.159-0.397 0.354-0.397z"></path>
<path fill="#aa5000" style="fill: var(--color8, #aa5000)" d="M22.996 23.606h0.237c0.194 0 0.354 0.179 0.354 0.397s-0.159 0.397-0.354 0.397h-0.237c-0.194 0-0.354-0.179-0.354-0.397s0.159-0.397 0.354-0.397z"></path>
<path fill="#aa5000" style="fill: var(--color8, #aa5000)" d="M19.091 23.715c0 0.237-0.171 0.432-0.381 0.432h-1.069c-0.21 0-0.381-0.194-0.381-0.432s0.171-0.432 0.381-0.432h1.069c0.21 0 0.381 0.194 0.381 0.432z"></path>
<path fill="#aa5000" style="fill: var(--color8, #aa5000)" d="M20.126 24.19c0 0.245-0.179 0.447-0.397 0.447h-1.093c-0.218 0-0.397-0.198-0.397-0.447 0-0.245 0.179-0.447 0.397-0.447h1.093c0.218 0 0.397 0.202 0.397 0.447z"></path>
<path fill="#dfdfdf" style="fill: var(--color9, #dfdfdf)" d="M29.452 22.817c0 0.089-0.062 0.159-0.144 0.159h-21.825c-0.078 0-0.144-0.070-0.144-0.159v-1.793c0-0.089 0.062-0.159 0.144-0.159h21.825c0.078 0 0.144 0.070 0.144 0.159v1.793z"></path>
<path fill="#c3c3c3" style="fill: var(--color10, #c3c3c3)" d="M29.308 20.865h-0.148v1.661c0 0.089-0.062 0.159-0.144 0.159h-21.677v0.136c0 0.089 0.062 0.159 0.144 0.159h21.825c0.078 0 0.144-0.070 0.144-0.159v-1.793c0-0.093-0.066-0.163-0.144-0.163z"></path>
<path fill="#fff" style="fill: var(--color2, #fff)" d="M9.419 21.806h-1.011c-0.121 0-0.218-0.109-0.218-0.245s0.097-0.245 0.218-0.245h1.011c0.121 0 0.218 0.109 0.218 0.245s-0.097 0.245-0.218 0.245z"></path>
<path fill="#fff" style="fill: var(--color2, #fff)" d="M10.096 21.806h-0.144c-0.121 0-0.218-0.109-0.218-0.245s0.097-0.245 0.218-0.245h0.144c0.121 0 0.218 0.109 0.218 0.245-0.004 0.136-0.101 0.245-0.218 0.245z"></path>
<path fill="#eaeaea" style="fill: var(--color3, #eaeaea)" d="M21.067 28.075h5.736c-0.062-0.288-0.284-0.514-0.568-0.587 0.015-0.062 0.023-0.128 0.023-0.198 0-0.447-0.362-0.809-0.809-0.809-0.128 0-0.249 0.031-0.354 0.082-0.171-0.381-0.552-0.642-0.999-0.642-0.471 0-0.875 0.299-1.027 0.716-0.136-0.090-0.296-0.14-0.467-0.14-0.471 0-0.852 0.381-0.852 0.852 0 0.043 0.004 0.082 0.008 0.121-0.342 0.031-0.622 0.28-0.692 0.607z"></path>
<path fill="#eaeaea" style="fill: var(--color3, #eaeaea)" d="M9.773 27.239h6.841c-0.074-0.342-0.338-0.614-0.681-0.7 0.019-0.074 0.031-0.156 0.031-0.237 0-0.533-0.432-0.965-0.964-0.965-0.152 0-0.296 0.035-0.424 0.097-0.206-0.451-0.661-0.766-1.19-0.766-0.564 0-1.042 0.354-1.225 0.856-0.159-0.105-0.35-0.167-0.556-0.167-0.56 0-1.015 0.455-1.015 1.015 0 0.051 0.004 0.097 0.012 0.144-0.408 0.039-0.743 0.334-0.828 0.723z"></path>
<path fill="#00d7ff" style="fill: var(--color11, #00d7ff)" d="M18.263 20.732c4.848 0 8.777-3.93 8.777-8.777s-3.93-8.777-8.777-8.777c-4.848 0-8.777 3.93-8.777 8.777s3.93 8.777 8.777 8.777z"></path>
<path fill="#fff" style="fill: var(--color2, #fff)" d="M23.343 17.034c2.805-2.805 2.805-7.353 0-10.158s-7.353-2.805-10.158 0-2.805 7.353 0 10.158c2.805 2.805 7.353 2.805 10.158 0z"></path>
<path fill="#00d7ff" style="fill: var(--color11, #00d7ff)" d="M18.263 17.403c3.009 0 5.449-2.439 5.449-5.448s-2.439-5.449-5.449-5.449c-3.009 0-5.448 2.439-5.448 5.449s2.439 5.448 5.448 5.448z"></path>
<path fill="#fff" style="fill: var(--color2, #fff)" d="M21.060 14.751c1.545-1.545 1.545-4.049 0-5.593s-4.049-1.545-5.593 0c-1.545 1.545-1.545 4.049 0 5.593s4.049 1.545 5.593 0z"></path>
<path fill="#00d7ff" style="fill: var(--color11, #00d7ff)" d="M20.354 13.051c0.605-1.155 0.16-2.581-0.994-3.187s-2.581-0.16-3.187 0.994c-0.605 1.155-0.16 2.581 0.994 3.187s2.581 0.16 3.187-0.994z"></path>
<path fill="#fff" style="fill: var(--color2, #fff)" d="M18.416 13.229c0.704-0.084 1.206-0.723 1.122-1.426s-0.723-1.206-1.426-1.122c-0.704 0.084-1.206 0.723-1.122 1.426s0.723 1.206 1.426 1.122z"></path>
<path fill="#ff7b00" style="fill: var(--color12, #ff7b00)" d="M23.318 9.734l0.778-3.076 4.671-1.999-0.953 2.936 2.788 1.268-4.573 2.147-2.711-1.276z"></path>
<path fill="#ff9557" style="fill: var(--color13, #ff9557)" d="M18.115 12.488c-0.152-0.054-0.28-0.167-0.35-0.327-0.136-0.307 0-0.669 0.307-0.805l10.166-4.55c0.307-0.136 0.669 0 0.805 0.307s0 0.669-0.307 0.805l-10.166 4.55c-0.148 0.070-0.311 0.070-0.455 0.019z"></path>
</symbol>
<symbol id="icon-calendar" viewBox="0 0 27 32">
<path fill="#00d7ff" style="fill: var(--color11, #00d7ff)" d="M9.143 14.4h-3.048v3.2h3.048v-3.2zM15.238 14.4h-3.048v3.2h3.048v-3.2zM21.333 14.4h-3.048v3.2h3.048v-3.2zM24.381 3.2h-1.524v-3.2h-3.048v3.2h-12.191v-3.2h-3.048v3.2h-1.524c-1.691 0-3.032 1.44-3.032 3.2l-0.015 22.4c0 1.76 1.356 3.2 3.048 3.2h21.333c1.676 0 3.048-1.44 3.048-3.2v-22.4c0-1.76-1.371-3.2-3.048-3.2zM24.381 28.8h-21.333v-17.6h21.333v17.6z"></path>
</symbol>
<symbol id="icon-clear" viewBox="0 0 32 32">
<path fill="#db0837" style="fill: var(--color14, #db0837)" d="M32 3.223l-3.223-3.223-12.777 12.777-12.777-12.777-3.223 3.223 12.777 12.777-12.777 12.777 3.223 3.223 12.777-12.777 12.777 12.777 3.223-3.223-12.777-12.777 12.777-12.777z"></path>
</symbol>
<symbol id="icon-done" viewBox="0 0 45 32">
<path fill="#24d40c" style="fill: var(--color15, #24d40c)" d="M14.255 25.313l-10.691-10.030-3.564 3.343 14.255 13.373 30.545-28.657-3.564-3.343-26.982 25.313z"></path>
</symbol>
<symbol id="icon-fire" viewBox="0 0 21 32">
<path fill="#ff851c" style="fill: var(--color1, #ff851c)" d="M5.548 32c-3.546-11.722 3.946-16.001 3.946-16.001-0.524 6.255 3.019 11.128 3.019 11.128 1.303-0.395 3.79-2.238 3.79-2.238 0 2.238-1.312 7.109-1.312 7.109s4.594-3.564 6.040-9.483c1.444-5.919-2.751-11.861-2.751-11.861 0.253 4.189-1.16 8.31-3.928 11.458 0.138-0.161 0.255-0.338 0.344-0.532 0.497-0.998 1.296-3.591 0.828-9.596-0.658-8.429-8.271-11.984-8.271-11.984 0.656 5.136-1.311 6.319-5.92 16.068-4.609 9.747 4.215 15.932 4.215 15.932z"></path>
</symbol>
<symbol id="icon-logout" viewBox="0 0 41 32">
<path d="M34.324 14.899h-21.396c-1.020 0-1.847 0.827-1.847 1.847s0.827 1.847 1.847 1.847h21.396l-2.388 2.388c-0.721 0.721-0.721 1.89 0 2.612s1.89 0.721 2.612 0l5.54-5.54c0.043-0.043 0.083-0.087 0.122-0.134 0.009-0.011 0.017-0.024 0.027-0.035 0.028-0.036 0.056-0.072 0.081-0.11 0.007-0.011 0.013-0.023 0.021-0.034 0.025-0.040 0.050-0.080 0.072-0.121 0.004-0.008 0.008-0.017 0.012-0.025 0.023-0.045 0.046-0.091 0.065-0.138 0.002-0.006 0.004-0.012 0.007-0.018 0.020-0.050 0.039-0.1 0.054-0.152 0.002-0.007 0.003-0.013 0.005-0.020 0.015-0.051 0.029-0.102 0.039-0.155 0.003-0.016 0.004-0.032 0.007-0.048 0.008-0.044 0.015-0.087 0.020-0.132 0.006-0.061 0.009-0.122 0.009-0.184s-0.003-0.123-0.009-0.184c-0.004-0.045-0.012-0.089-0.020-0.133-0.003-0.015-0.004-0.031-0.007-0.046-0.011-0.053-0.024-0.105-0.039-0.156-0.002-0.006-0.003-0.012-0.005-0.018-0.016-0.052-0.034-0.103-0.055-0.153-0.002-0.005-0.004-0.011-0.006-0.017-0.020-0.048-0.042-0.094-0.066-0.139-0.004-0.008-0.008-0.016-0.012-0.024-0.023-0.042-0.048-0.082-0.073-0.122-0.007-0.011-0.013-0.022-0.020-0.033-0.025-0.038-0.053-0.074-0.081-0.11-0.009-0.012-0.017-0.024-0.026-0.035-0.039-0.047-0.079-0.091-0.122-0.134l-5.54-5.54c-0.361-0.361-0.833-0.541-1.306-0.541s-0.945 0.18-1.306 0.541c-0.721 0.721-0.721 1.89 0 2.612l2.388 2.388z"></path>
<path d="M15.107 31.853c5.041 0 9.731-2.501 12.546-6.689 0.569-0.846 0.344-1.994-0.503-2.563s-1.994-0.344-2.563 0.503c-2.127 3.166-5.672 5.056-9.48 5.056-6.293 0-11.413-5.12-11.413-11.413s5.12-11.413 11.413-11.413c3.798 0 7.336 1.882 9.465 5.033 0.571 0.845 1.719 1.067 2.564 0.496s1.067-1.719 0.496-2.564c-2.817-4.17-7.499-6.659-12.526-6.659-8.33 0-15.107 6.777-15.107 15.107s6.777 15.107 15.107 15.107z"></path>
</symbol>
<symbol id="icon-save" viewBox="0 0 32 32">
<path fill="#00d7ff" style="fill: var(--color11, #00d7ff)" d="M24.889 0h-21.333c-1.973 0-3.556 1.6-3.556 3.556v24.889c0 1.956 1.582 3.556 3.556 3.556h24.889c1.956 0 3.556-1.6 3.556-3.556v-21.333l-7.111-7.111zM28.444 28.444h-24.889v-24.889h19.858l5.031 5.031v19.858zM16 16c-2.951 0-5.333 2.382-5.333 5.333s2.382 5.333 5.333 5.333 5.333-2.382 5.333-5.333c0-2.951-2.382-5.333-5.333-5.333zM5.333 5.333h16v7.111h-16v-7.111z"></path>
</symbol>
<symbol id="icon-star" viewBox="0 0 32 32">
<path fill="#00d7ff" style="fill: var(--color11, #00d7ff)" d="M25.527 8.672l-5.747-0.543c-0.362-0.033-0.675-0.263-0.823-0.609l-2.059-4.99c-0.329-0.823-1.499-0.823-1.828 0l-2.042 4.99c-0.132 0.346-0.461 0.576-0.823 0.609l-5.747 0.543c-0.856 0.082-1.202 1.153-0.56 1.729l4.331 3.804c0.28 0.247 0.395 0.609 0.313 0.972l-1.301 5.335c-0.198 0.84 0.708 1.532 1.466 1.087l4.792-2.816c0.313-0.181 0.692-0.181 1.005 0l4.792 2.816c0.758 0.445 1.663-0.231 1.465-1.087l-1.284-5.335c-0.082-0.362 0.033-0.725 0.313-0.972l4.331-3.804c0.626-0.576 0.264-1.647-0.593-1.729z"></path>
</symbol>
<symbol id="icon-trophy" viewBox="0 0 32 32">
<path d="M31.062 2.31h-4.106c0.015-0.455 0.023-0.912 0.023-1.372 0-0.518-0.42-0.938-0.937-0.938h-20.083c-0.518 0-0.938 0.42-0.938 0.938 0 0.46 0.008 0.917 0.023 1.372h-4.106c-0.518 0-0.938 0.42-0.938 0.938 0 4.201 1.098 8.164 3.091 11.16 1.97 2.962 4.595 4.66 7.43 4.826 0.643 0.699 1.322 1.27 2.030 1.705v4.167h-1.573c-1.901 0-3.448 1.547-3.448 3.448v1.573h-0.067c-0.518 0-0.938 0.42-0.938 0.937s0.42 0.938 0.938 0.938h17.071c0.518 0 0.938-0.42 0.938-0.938s-0.42-0.937-0.938-0.937h-0.067v-1.573c0-1.901-1.547-3.448-3.448-3.448h-1.573v-4.167c0.708-0.435 1.387-1.005 2.030-1.705 2.835-0.165 5.46-1.864 7.431-4.826 1.993-2.996 3.091-6.959 3.091-11.16 0-0.518-0.42-0.938-0.938-0.938zM4.652 13.368c-1.644-2.471-2.61-5.703-2.758-9.184h3.254c0.338 4.279 1.343 8.234 2.912 11.373 0.25 0.5 0.511 0.972 0.783 1.417-1.559-0.589-3.002-1.82-4.191-3.607zM27.348 13.368c-1.189 1.787-2.632 3.018-4.191 3.607 0.271-0.445 0.533-0.917 0.783-1.417 1.57-3.14 2.574-7.095 2.912-11.373h3.254c-0.147 3.481-1.113 6.712-2.758 9.184z"></path>
</symbol>
<!-- <symbol id="icon-plus" viewBox="0 0 16 16">
<path d="M1.16007 7.24037H7.23995V1.16034C7.23995 0.740915 7.58048 0.400391 8.00005 0.400391C8.41947 0.400391 8.76 0.740915 8.76 1.16034V7.24037H14.84C15.2595 7.24037 15.6 7.58089 15.6 8.00032C15.6 8.41989 15.2595 8.76041 14.84 8.76041H8.76V14.8403C8.76 15.2599 8.41947 15.6004 8.00005 15.6004C7.58048 15.6004 7.23995 15.2599 7.23995 14.8403V8.76041H1.16007C0.740499 8.76041 0.399976 8.41989 0.399976 8.00032C0.399976 7.58089 0.740499 7.24037 1.16007 7.24037Z"/>
</symbol> -->
<symbol id="icon-plus" width="16" height="16" viewBox="0 0 16 16" fill="none" xmlns="http://www.w3.org/2000/svg">
<path d="M1.16007 7.24037H7.23995V1.16034C7.23995 0.740915 7.58048 0.400391 8.00005 0.400391C8.41947 0.400391 8.76 0.740915 8.76 1.16034V7.24037H14.84C15.2595 7.24037 15.6 7.58089 15.6 8.00032C15.6 8.41989 15.2595 8.76041 14.84 8.76041H8.76V14.8403C8.76 15.2599 8.41947 15.6004 8.00005 15.6004C7.58048 15.6004 7.23995 15.2599 7.23995 14.8403V8.76041H1.16007C0.740499 8.76041 0.399976 8.41989 0.399976 8.00032C0.399976 7.58089 0.740499 7.24037 1.16007 7.24037Z" fill="white"/>
</symbol>
</defs>
</svg>
